<svg width="180" height="180" viewBox="0 0 180 180" fill="none" xmlns="http://www.w3.org/2000/svg">
<g clip-path="url(#clip0_168_2092)">
<rect x="-2" y="-1" width="185" height="183" fill="#0071EF"/>
<path d="M52.0722 152.002C43.897 152.002 37.2686 145.373 37.2686 137.197C37.2686 129.022 43.897 122.377 52.0722 122.377C60.2473 122.377 66.8758 129.006 66.8758 137.197C66.8758 145.389 60.2473 152.002 52.0722 152.002Z" fill="white"/>
<path d="M133.73 21.1919C142.015 21.1919 148.738 27.9155 148.738 36.2016C148.738 44.4877 142.015 51.2113 133.73 51.2113C125.444 51.2113 118.721 44.4877 118.721 36.2016C118.721 27.9155 125.444 21.1919 133.73 21.1919Z" fill="white"/>
<path d="M116.574 151.86C103.633 153.264 90.4072 152.112 77.0556 152.112V122.582H97.5565C102.212 122.582 106.868 122.661 111.508 122.55C117.237 122.408 121.64 117.863 121.656 112.291C121.656 106.783 117.205 102.048 111.555 101.969C99.2452 101.796 86.9352 101.796 74.6093 101.748C53.2088 101.685 35.88 85.1604 34.286 63.2535C32.8498 43.4616 48.6477 23.717 68.9593 21.7441C81.806 20.4972 94.8578 21.5073 108.115 21.5073V51.1479C101.723 51.1479 95.4733 51.1479 89.2236 51.1479C84.5678 51.1479 77.892 51.1163 73.2521 51.1479C66.9234 51.211 62.3151 55.5356 62.2519 61.4227C62.1888 67.3255 66.7341 71.7606 73.11 71.7764C85.0097 71.8395 98.9454 71.6343 110.845 71.8553C130.005 72.2025 145.945 84.608 150.348 102.285C156.187 125.754 140.768 149.192 116.558 151.828" fill="white"/>
</g>
<defs>
<clipPath id="clip0_168_2092">
<rect width="180" height="180" fill="white"/>
</clipPath>
</defs>
</svg>
