<svg width="32" height="32" viewBox="0 0 32 32" fill="none" xmlns="http://www.w3.org/2000/svg">
<rect width="32" height="32" fill="#0071EF"/>
<rect x="1" y="1" width="30" height="30" fill="#0071EF"/>
<path d="M9.76778 26.0821C8.44208 26.0821 7.36719 24.9954 7.36719 23.6551C7.36719 22.3149 8.44208 21.2256 9.76778 21.2256C11.0935 21.2256 12.1684 22.3123 12.1684 23.6551C12.1684 24.998 11.0935 26.0821 9.76778 26.0821Z" fill="white"/>
<path d="M23.01 4.63818C24.3536 4.63818 25.4439 5.74041 25.4439 7.09879C25.4439 8.45717 24.3536 9.55939 23.01 9.55939C21.6664 9.55939 20.5762 8.45717 20.5762 7.09879C20.5762 5.74041 21.6664 4.63818 23.01 4.63818Z" fill="white"/>
<path d="M20.2278 26.059C18.1292 26.2893 15.9846 26.1004 13.8195 26.1004V21.2594H17.1439C17.8989 21.2594 18.6539 21.2723 19.4063 21.2542C20.3353 21.2309 21.0494 20.4858 21.0519 19.5724C21.0519 18.6694 20.3302 17.8932 19.414 17.8803C17.4178 17.8518 15.4215 17.8518 13.4228 17.8441C9.95241 17.8337 7.14233 15.1247 6.88385 11.5334C6.65096 8.28884 9.21278 5.05202 12.5065 4.72859C14.5898 4.52419 16.7063 4.68978 18.8561 4.68978V9.54889C17.8196 9.54889 16.8061 9.54889 15.7926 9.54889C15.0377 9.54889 13.9551 9.54372 13.2027 9.54889C12.1764 9.55924 11.4291 10.2682 11.4189 11.2333C11.4086 12.201 12.1457 12.928 13.1796 12.9306C15.1093 12.941 17.3691 12.9073 19.2988 12.9435C22.4058 13.0005 24.9906 15.0342 25.7047 17.932C26.6516 21.7795 24.1512 25.6217 20.2253 26.0538" fill="white"/>
</svg>
