<svg width="64" height="64" viewBox="0 0 64 64" fill="none" xmlns="http://www.w3.org/2000/svg">
<g clip-path="url(#clip0_168_2076)">
<rect x="-1" width="66" height="65" fill="#0071EF"/>
<path d="M18.2911 54.3447C15.3745 54.3447 13.0098 51.9902 13.0098 49.0863C13.0098 46.1824 15.3745 43.8223 18.2911 43.8223C21.2076 43.8223 23.5724 46.1768 23.5724 49.0863C23.5724 51.9958 21.2076 54.3447 18.2911 54.3447Z" fill="white"/>
<path d="M47.4228 7.88184C50.3788 7.88184 52.7773 10.27 52.7773 13.2131C52.7773 16.1563 50.3788 18.5445 47.4228 18.5445C44.4669 18.5445 42.0684 16.1563 42.0684 13.2131C42.0684 10.27 44.4669 7.88184 47.4228 7.88184Z" fill="white"/>
<path d="M41.3022 54.2941C36.6853 54.793 31.9671 54.3838 27.2038 54.3838V43.895H34.5176C36.1786 43.895 37.8396 43.923 39.4949 43.8838C41.5387 43.8333 43.1096 42.2188 43.1152 40.2399C43.1152 38.2834 41.5274 36.6016 39.5118 36.5735C35.1201 36.5119 30.7284 36.5119 26.3311 36.495C18.6963 36.4726 12.5141 30.6031 11.9454 22.822C11.4331 15.7921 17.0691 8.77896 24.3154 8.07821C28.8985 7.63534 33.5548 7.99412 38.2844 7.99412V18.5222C36.004 18.5222 33.7744 18.5222 31.5448 18.5222C29.8838 18.5222 27.5022 18.511 25.8468 18.5222C23.5891 18.5446 21.945 20.0807 21.9225 22.1717C21.9 24.2683 23.5215 25.8436 25.7962 25.8492C30.0415 25.8717 35.0131 25.7988 39.2584 25.8773C46.0937 26.0006 51.7804 30.4069 53.3512 36.6856C55.4345 45.0218 49.9336 53.3467 41.2966 54.2829" fill="white"/>
</g>
<defs>
<clipPath id="clip0_168_2076">
<rect width="64" height="64" fill="white"/>
</clipPath>
</defs>
</svg>
