<svg width="16" height="16" viewBox="0 0 16 16" fill="none" xmlns="http://www.w3.org/2000/svg">
<g clip-path="url(#clip0_168_2082)">
<path opacity="0.7" d="M9 4C9.55228 4 10 3.55228 10 3C10 2.44772 9.55228 2 9 2C8.44772 2 8 2.44772 8 3C8 3.55228 8.44772 4 9 4Z" fill="white"/>
<rect width="16" height="16" fill="#0071EF"/>
<path d="M4.6768 13.3773C3.96976 13.3773 3.39648 12.7977 3.39648 12.0829C3.39648 11.3681 3.96976 10.7871 4.6768 10.7871C5.38384 10.7871 5.95711 11.3667 5.95711 12.0829C5.95711 12.7991 5.38384 13.3773 4.6768 13.3773Z" fill="white"/>
<path d="M11.7395 1.94043C12.4561 1.94043 13.0375 2.52828 13.0375 3.25275C13.0375 3.97722 12.4561 4.56507 11.7395 4.56507C11.0229 4.56507 10.4414 3.97722 10.4414 3.25275C10.4414 2.52828 11.0229 1.94043 11.7395 1.94043Z" fill="white"/>
<path d="M10.2555 13.3648C9.13625 13.4876 7.99243 13.3868 6.83769 13.3868V10.805H8.61075C9.01341 10.805 9.41606 10.8119 9.81736 10.8022C10.3128 10.7898 10.6936 10.3924 10.695 9.90526C10.695 9.42366 10.3101 9.00968 9.82145 9.00278C8.7568 8.9876 7.69214 8.9876 6.62613 8.98346C4.77527 8.97794 3.27656 7.53315 3.1387 5.61779C3.01449 3.88735 4.3808 2.16104 6.13748 1.98855C7.24854 1.87953 8.37734 1.96785 9.52389 1.96785V4.55938C8.97109 4.55938 8.43058 4.55938 7.89006 4.55938C7.4874 4.55938 6.91003 4.55662 6.50874 4.55938C5.9614 4.5649 5.56284 4.943 5.55738 5.45772C5.55192 5.97382 5.94502 6.36158 6.49646 6.36296C7.52562 6.36848 8.73086 6.35054 9.76003 6.36986C11.4171 6.40022 12.7957 7.48485 13.1765 9.03038C13.6815 11.0823 12.348 13.1316 10.2541 13.362" fill="white"/>
</g>
<defs>
<clipPath id="clip0_168_2082">
<rect width="16" height="16" fill="white"/>
</clipPath>
</defs>
</svg>
