<svg width="33" height="32" viewBox="0 0 33 32" fill="none" xmlns="http://www.w3.org/2000/svg">
<mask id="mask0_14_178" style="mask-type:alpha" maskUnits="userSpaceOnUse" x="0" y="0" width="33" height="32">
<rect x="0.5" width="32" height="32" fill="#D9D9D9"/>
</mask>
<g mask="url(#mask0_14_178)">
<path d="M16.4877 28C14.8321 28 13.2762 27.6842 11.82 27.0527C10.364 26.4209 9.09533 25.5654 8.014 24.4863C6.93267 23.4072 6.07667 22.1383 5.446 20.6797C4.81533 19.2208 4.5 17.662 4.5 16.0033C4.5 14.3447 4.815 12.7849 5.445 11.324C6.075 9.86333 6.93 8.59267 8.01 7.512C9.09 6.43133 10.36 5.57589 11.82 4.94567C13.28 4.31522 14.84 4 16.5 4C17.8647 4 19.1558 4.21111 20.3733 4.63333C21.5911 5.05556 22.7017 5.64444 23.705 6.4L22.746 7.39233C21.8676 6.73922 20.9011 6.23278 19.8467 5.873C18.7924 5.51322 17.6769 5.33333 16.5 5.33333C13.5444 5.33333 11.0278 6.37222 8.95 8.45C6.87222 10.5278 5.83333 13.0444 5.83333 16C5.83333 18.9556 6.87222 21.4722 8.95 23.55C11.0278 25.6278 13.5444 26.6667 16.5 26.6667C17.2796 26.6667 18.0368 26.5829 18.7717 26.4153C19.5068 26.2478 20.2111 26.0162 20.8847 25.7207L21.8847 26.7283C21.076 27.1386 20.2187 27.453 19.3127 27.6717C18.4069 27.8906 17.4652 28 16.4877 28ZM26.5 26V22H22.5V20.6667H26.5V16.6667H27.8333V20.6667H31.8333V22H27.8333V26H26.5ZM14.582 21.2103L9.83833 16.4667L10.782 15.523L14.582 19.323L27.5563 6.341L28.5 7.28467L14.582 21.2103Z" fill="#1C1B1F"/>
</g>
</svg>
