<svg width="32" height="32" viewBox="0 0 32 32" fill="none" xmlns="http://www.w3.org/2000/svg">
<mask id="mask0_14_208" style="mask-type:alpha" maskUnits="userSpaceOnUse" x="0" y="0" width="32" height="32">
<rect width="32" height="32" fill="#D9D9D9"/>
</mask>
<g mask="url(#mask0_14_208)">
<path d="M2.66663 26.6666V15.3333L10.6666 9.64098L19.0513 15.6153C18.894 15.7726 18.744 15.9355 18.6013 16.104C18.4586 16.2722 18.3086 16.435 18.1513 16.5923L10.6666 11.318L3.99996 16V25.3333H7.64096V19.3333H13.6923V26.6666H12.359V20.6666H8.97429V26.6666H2.66663ZM29.3333 5.33331V16.7563C29.1264 16.5785 28.9162 16.4225 28.7026 16.2883C28.4888 16.1543 28.2546 16.0249 28 15.9V6.66665H15.1793V9.58465L13.846 8.62565V5.33331H29.3333ZM22.9743 11.6923H25.0256V9.64098H22.9743V11.6923ZM24 29.3333C22.5144 29.3333 21.2542 28.8158 20.2193 27.7806C19.1842 26.7458 18.6666 25.4855 18.6666 24C18.6666 22.5144 19.1842 21.2542 20.2193 20.2193C21.2542 19.1842 22.5144 18.6666 24 18.6666C25.4855 18.6666 26.7457 19.1842 27.7806 20.2193C28.8157 21.2542 29.3333 22.5144 29.3333 24C29.3333 25.4855 28.8157 26.7458 27.7806 27.7806C26.7457 28.8158 25.4855 29.3333 24 29.3333ZM23.4873 27.846H24.5126V24.5126H27.846V23.4873H24.5126V20.154H23.4873V23.4873H20.154V24.5126H23.4873V27.846Z" fill="#1C1B1F"/>
</g>
</svg>
