<svg width="538" height="244" viewBox="0 0 538 244" fill="none" xmlns="http://www.w3.org/2000/svg">
<g filter="url(#filter0_d_267_5024)">
<path d="M82.1705 49.9219H456.551C474.521 49.9219 488.831 64.2247 488.831 82.1865V162.682C488.831 180.643 474.521 194.946 456.551 194.946H82.1705C64.2003 194.946 49.8906 180.643 49.8906 162.682V82.1865C49.8906 64.2247 64.2003 49.9219 82.1705 49.9219Z" fill="white" shape-rendering="crispEdges"/>
<path d="M456.551 42.4219C478.66 42.4219 496.331 60.0793 496.331 82.1865V162.682C496.331 184.789 478.66 202.446 456.551 202.446H82.1709C60.0619 202.446 42.3906 184.789 42.3906 162.682V82.1865C42.3906 60.0793 60.0619 42.4219 82.1709 42.4219H456.551Z" stroke="white" stroke-opacity="0.7" stroke-width="15" shape-rendering="crispEdges"/>
</g>
<path d="M273.853 100.816L247.231 72.543H194.318L223.603 100.816H273.853Z" fill="#006AB4"/>
<path d="M223.603 137.736L194.318 166.009H247.231L273.853 137.736H223.603Z" fill="#006AB4"/>
<path d="M209.959 116.781H200.974V105.805H194.651V132.747H200.974V122.436H209.959V132.747H216.282V105.805H209.959V116.781Z" fill="#006AB4"/>
<path d="M251.557 105.805H245.234V132.747H261.207V127.093H251.557V105.805Z" fill="#006AB4"/>
<path d="M270.526 105.805H264.203V132.415H270.526V105.805Z" fill="#006AB4"/>
<path d="M280.176 111.459H291.823V105.805H273.853V132.747H280.176V122.436H289.827V116.781H280.176V111.459Z" fill="#006AB4"/>
<path d="M227.264 105.805L218.279 132.415H224.602L225.933 127.758H234.918L236.249 132.415H242.572L233.587 105.805H226.931H227.264ZM227.93 122.436L230.925 113.455L233.92 122.436H227.93Z" fill="#006AB4"/>
<path d="M338.08 105.805H330.759L325.767 113.788L320.776 105.805H313.454L322.107 119.11L314.12 131.417L305.468 105.805H298.479L289.494 132.415H295.817L297.148 127.758H306.133L307.464 132.415H320.11L325.102 124.432L330.094 132.415H337.415L328.762 119.11L337.748 105.805H338.08ZM299.81 122.436L302.805 113.455L305.8 122.436H299.81Z" fill="#006AB4"/>
<path d="M286.166 72.543L269.86 89.5068L280.176 100.816H310.127L339.411 72.543H286.166Z" fill="#006AB4"/>
<path d="M310.127 137.736H280.176L269.86 148.713L286.166 166.009H339.411L310.127 137.736Z" fill="#006AB4"/>
<defs>
<filter id="filter0_d_267_5024" x="0.890625" y="0.921875" width="536.94" height="243.025" filterUnits="userSpaceOnUse" color-interpolation-filters="sRGB">
<feFlood flood-opacity="0" result="BackgroundImageFix"/>
<feColorMatrix in="SourceAlpha" type="matrix" values="0 0 0 0 0 0 0 0 0 0 0 0 0 0 0 0 0 0 127 0" result="hardAlpha"/>
<feMorphology radius="2" operator="erode" in="SourceAlpha" result="effect1_dropShadow_267_5024"/>
<feOffset/>
<feGaussianBlur stdDeviation="18"/>
<feComposite in2="hardAlpha" operator="out"/>
<feColorMatrix type="matrix" values="0 0 0 0 0.313726 0 0 0 0 0.54902 0 0 0 0 0.815686 0 0 0 0.21 0"/>
<feBlend mode="normal" in2="BackgroundImageFix" result="effect1_dropShadow_267_5024"/>
<feBlend mode="normal" in="SourceGraphic" in2="effect1_dropShadow_267_5024" result="shape"/>
</filter>
</defs>
</svg>
