<svg width="33" height="32" viewBox="0 0 33 32" fill="none" xmlns="http://www.w3.org/2000/svg">
<mask id="mask0_14_196" style="mask-type:alpha" maskUnits="userSpaceOnUse" x="0" y="0" width="33" height="32">
<rect x="0.5" width="32" height="32" fill="black"/>
</mask>
<g mask="url(#mask0_14_196)">
<path d="M16.4954 28.5127C15.9018 28.5127 15.3952 28.3018 14.9757 27.88C14.5559 27.4582 14.346 26.9512 14.346 26.359H18.654C18.654 26.9557 18.4426 27.4638 18.0197 27.8833C17.597 28.3029 17.0889 28.5127 16.4954 28.5127ZM7.16669 25.0257V23.6923H9.32069V13.1283C9.32069 11.3863 9.87191 9.85422 10.9744 8.532C12.077 7.20978 13.4745 6.38633 15.1667 6.06167V5.33333C15.1667 4.96289 15.296 4.64811 15.5547 4.389C15.8134 4.12967 16.1275 4 16.497 4C16.8666 4 17.1817 4.12967 17.4424 4.389C17.703 4.64811 17.8334 4.96289 17.8334 5.33333V6.06167C18.3582 6.16589 18.854 6.32178 19.3207 6.52933C19.7874 6.73711 20.2207 6.97944 20.6207 7.25633L19.6437 8.23333C19.1941 7.94111 18.7051 7.70945 18.1767 7.53833C17.6482 7.36745 17.0894 7.282 16.5 7.282C14.8796 7.282 13.5001 7.85122 12.3617 8.98967C11.2232 10.1281 10.654 11.5077 10.654 13.1283V23.6923H25.8334V25.0257H7.16669ZM20.982 18.6487L20.0384 17.6973C20.3975 17.3384 20.6752 16.9266 20.8717 16.4617C21.0684 15.9966 21.1667 15.5128 21.1667 15.0103C21.1667 14.5077 21.0684 14.0226 20.8717 13.555C20.6752 13.0877 20.3975 12.6744 20.0384 12.3153L20.982 11.3717C21.4829 11.8897 21.8611 12.4581 22.1167 13.077C22.3722 13.6957 22.5 14.3401 22.5 15.0103C22.5 15.6803 22.3722 16.3248 22.1167 16.9437C21.8611 17.5623 21.4829 18.1307 20.982 18.6487ZM23.364 21.0307C24.1625 20.2324 24.7736 19.3147 25.1974 18.2773C25.6214 17.2398 25.8334 16.1517 25.8334 15.013C25.8334 13.8743 25.6214 12.7853 25.1974 11.746C24.7736 10.7069 24.1625 9.78811 23.364 8.98967L24.3154 8.046C25.2436 8.97422 25.9509 10.0353 26.4374 11.2293C26.9236 12.4236 27.1667 13.6839 27.1667 15.0103C27.1667 16.3368 26.9236 17.597 26.4374 18.791C25.9509 19.985 25.2436 21.0461 24.3154 21.9743L23.364 21.0307Z" fill="black"/>
</g>
</svg>
