<svg width="115" height="18" viewBox="0 0 115 18" fill="none" xmlns="http://www.w3.org/2000/svg">
<mask id="mask0_3_5466" style="mask-type:luminance" maskUnits="userSpaceOnUse" x="0" y="0" width="115" height="18">
<path d="M115 0H0V18H115V0Z" fill="white"/>
</mask>
<g mask="url(#mask0_3_5466)">
<path d="M88.6452 16.1055C88.6452 17.0721 87.8616 17.8574 86.8935 17.8574C85.9253 17.8574 85.1417 17.0721 85.1417 16.1055C85.1417 15.139 85.9253 14.3537 86.8935 14.3537C87.8616 14.3537 88.6452 15.139 88.6452 16.1055Z" fill="#0071EF"/>
<path d="M89.2929 6.90333C89.6771 7.44868 90.3147 7.83294 91.0178 7.83294C91.8937 7.83294 92.7561 7.14328 92.7561 6.14655C92.7561 5.14981 91.9591 4.44672 90.9255 4.44672C90.553 4.44672 90.1553 4.53901 89.8114 4.71185V3.64967L91.5497 1.59243H88.4422V0H94.0833V1.06218L92.397 3.13284C93.6705 3.6245 94.5481 4.7387 94.5481 6.14655C94.5481 8.11149 93.0078 9.42537 91.0832 9.42537C89.9288 9.42537 88.8264 8.90687 88.0043 7.97725L89.2912 6.90165L89.2929 6.90333Z" fill="#0071EF"/>
<path d="M100.573 0L98.8217 2.96169H98.9408C100.706 2.96169 102.193 4.30241 102.193 6.15997C102.193 8.01753 100.693 9.42537 98.8871 9.42537C97.0817 9.42537 95.4894 8.19036 95.4894 6.25226C95.4894 5.33607 95.9139 4.51217 96.4055 3.68994L98.5952 0L100.573 0ZM97.2143 6.25226C97.2143 7.12818 97.9576 7.83127 98.8603 7.83127C99.763 7.83127 100.427 7.10133 100.427 6.21199C100.427 5.32264 99.763 4.55244 98.768 4.55244C98.4358 4.55244 98.117 4.61956 97.7713 4.77897C97.5196 5.12464 97.2143 5.62804 97.2143 6.25226Z" fill="#0071EF"/>
<path d="M104.201 7.08959C104.599 7.51412 105.169 7.83295 105.795 7.83295C106.206 7.83295 106.605 7.68696 106.909 7.40841C107.228 7.11644 107.426 6.6919 107.426 6.21367C107.426 5.70859 107.215 5.2572 106.855 4.9518C106.563 4.7001 106.166 4.58096 105.728 4.58096C105.29 4.58096 104.758 4.7538 104.36 5.08604L103.246 4.92663L103.842 0H108.753V1.59243H105.302L105.156 3.0523C105.342 3.01203 105.621 2.98518 105.872 2.98518C106.589 2.98518 107.386 3.15801 108.037 3.68826C108.767 4.27221 109.218 5.21525 109.218 6.21031C109.218 8.0427 107.664 9.4237 105.793 9.4237C104.718 9.4237 103.788 9.03943 102.979 8.22896L104.201 7.08791V7.08959Z" fill="#0071EF"/>
</g>
<path d="M110.475 0.0318604V0.36075H111.134V2.45658H111.48V0.36075H112.138V0.0318604H110.475Z" fill="#0071EF"/>
<path d="M114.757 0.0302124L113.82 1.51022L112.884 0.0302124H112.643V2.45661H112.988V0.825589L113.7 1.93811H113.941L114.653 0.825589V2.45661H114.998V0.0302124H114.757Z" fill="#0071EF"/>
<path d="M62.0338 3.68323C61.6965 3.62114 61.23 3.5943 60.9398 3.5943C59.2669 3.5943 57.9984 4.23529 57.2165 4.96858V3.87788H54.0771V17.7164H57.3021V8.71893C58.0169 7.53258 59.4045 6.67848 60.6277 6.67848C61.0522 6.67848 61.3341 6.70868 61.6042 6.78251L62.2821 6.96877V3.73021L62.0338 3.68491V3.68323Z" fill="#0071EF"/>
<path d="M84.6652 3.68323C84.328 3.62114 83.8615 3.5943 83.5712 3.5943C81.8984 3.5943 80.6299 4.23529 79.848 4.96858V3.87788H76.7086V17.7164H79.9335V8.71893C80.65 7.53258 82.036 6.67848 83.2591 6.67848C83.6837 6.67848 83.9655 6.70868 84.2357 6.78251L84.9136 6.96877V3.73021L84.6652 3.68491V3.68323Z" fill="#0071EF"/>
<path d="M74.727 14.7178C73.9887 14.8051 73.2253 14.8974 72.4803 14.8286C71.935 14.7799 71.195 14.6658 70.8259 14.2127C70.5507 13.8922 70.4937 13.3721 70.4937 12.6891V6.73049H74.7388V3.78727H70.4937V0.10907H67.2687V3.78894H63.8727V6.73217H67.2687V12.5481C67.2687 14.1976 67.6429 15.4142 68.4114 16.2633C69.2504 17.1929 70.3896 17.7298 71.6296 17.8691C72.2622 17.9396 72.8998 17.9262 73.534 17.9178C73.5894 17.9178 74.7253 17.8976 74.7253 17.8557V14.7178H74.727Z" fill="#0071EF"/>
<path d="M48.9092 3.87788V4.80917C47.7934 4.00205 46.488 3.5943 45.0165 3.5943C43.7731 3.5943 42.602 3.90137 41.6254 4.48028C39.4324 5.77738 38.0699 8.19707 38.0699 10.7963C38.0699 13.3955 39.3888 15.7766 41.5969 17.0838C42.5617 17.6577 43.8604 17.9983 45.0735 17.9983C46.4997 17.9983 47.8404 17.5738 48.9092 16.7918V17.7147H52.0485V3.87788H48.9092ZM45.441 14.9158C43.1154 14.9158 41.2949 13.1069 41.2949 10.7963C41.2949 8.79948 42.6993 6.67848 45.3 6.67848C46.6558 6.67848 47.9662 7.31947 48.8236 8.39843V13.1975C47.9897 14.2748 46.7313 14.9158 45.441 14.9158Z" fill="#0071EF"/>
<path d="M30.402 3.5943C27.9405 3.5943 26.4606 4.6162 25.3532 5.67838C24.135 4.33094 22.4705 3.5943 20.64 3.5943C19.1164 3.5943 17.7741 4.23865 17.0023 4.8226V3.87788H13.8629V17.7164H17.0878V8.40682C17.5912 7.83295 18.8178 6.67848 20.5544 6.67848C21.4789 6.67848 22.3648 7.07616 22.9253 7.74401C23.2726 8.15177 23.6249 8.76592 23.6249 10.2308V17.7164H26.8499V10.6554C26.8499 9.81467 26.7844 9.07299 26.6468 8.39172C27.4606 7.57285 28.6184 6.67848 30.402 6.67848C31.2862 6.67848 32.1185 7.0661 32.689 7.74401C33.0363 8.15177 33.3887 8.76592 33.3887 10.2308V17.7164H36.6136V10.6554C36.6136 8.45381 36.231 7.04093 35.3384 5.93176C34.1555 4.44672 32.3584 3.5943 30.402 3.5943Z" fill="#0071EF"/>
<path d="M10.5792 3.79901C11.4601 3.79901 12.1749 4.51384 12.1749 5.3948C12.1749 6.27575 11.4601 6.99058 10.5792 6.99058C9.69831 6.99058 8.98352 6.27575 8.98352 5.3948C8.98352 4.51384 9.69831 3.79901 10.5792 3.79901Z" fill="#0071EF"/>
<path d="M1.89772 17.7063C1.02857 17.7063 0.323853 17.0016 0.323853 16.1324C0.323853 15.2632 1.02857 14.5567 1.89772 14.5567C2.76688 14.5567 3.4716 15.2615 3.4716 16.1324C3.4716 17.0033 2.76688 17.7063 1.89772 17.7063Z" fill="#0071EF"/>
<path d="M86.8935 17.7063C86.0243 17.7063 85.3196 17.0016 85.3196 16.1324C85.3196 15.2632 86.0243 14.5567 86.8935 14.5567C87.7626 14.5567 88.4673 15.2615 88.4673 16.1324C88.4673 17.0033 87.7626 17.7063 86.8935 17.7063Z" fill="#0071EF"/>
<path d="M8.75529 17.6912C7.37941 17.8406 5.97333 17.7181 4.55382 17.7181V14.5785H6.73342C7.2284 14.5785 7.72338 14.5869 8.21668 14.5752C8.82576 14.5601 9.2939 14.0768 9.29557 13.4845C9.29557 12.8989 8.8224 12.3954 8.22172 12.3871C6.91295 12.3686 5.60419 12.3686 4.29375 12.3636C2.01852 12.3569 0.176182 10.6 0.00671353 8.2709C-0.145975 6.16668 1.5336 4.06749 3.69306 3.85774C5.05887 3.72518 6.4465 3.83257 7.85593 3.83257V6.98387C7.17638 6.98387 6.51194 6.98387 5.84749 6.98387C5.35251 6.98387 4.64275 6.98052 4.14945 6.98387C3.47661 6.99058 2.98667 7.45036 2.97995 8.07626C2.97324 8.70383 3.45648 9.17535 4.13435 9.17703C5.39949 9.18374 6.88107 9.16193 8.14621 9.18542C10.1832 9.22233 11.8779 10.5412 12.346 12.4206C12.9668 14.9158 11.3275 17.4077 8.75361 17.6879" fill="#0071EF"/>
</svg>
