<svg width="24" height="24" viewBox="0 0 24 24" fill="none" xmlns="http://www.w3.org/2000/svg">
<mask id="mask0_16_198" style="mask-type:alpha" maskUnits="userSpaceOnUse" x="0" y="0" width="24" height="24">
<rect width="24" height="24" fill="#D9D9D9"/>
</mask>
<g mask="url(#mask0_16_198)">
<path d="M4.55375 20.5L3.5 19.4462L11.1308 11.8L6.75975 10.723L11.325 7.8885L10.929 2.5L15.048 5.977L20.025 3.95L18.023 8.94225L21.5 13.046L16.1115 12.675L13.2615 17.2402L12.175 12.8693L4.55375 20.5ZM5.14425 7.40375L3.5 5.7595L5.14425 4.1155L6.7885 5.7595L5.14425 7.40375ZM13.875 13.4348L15.3057 11.1038L18.0443 11.3077L16.275 9.20575L17.304 6.671L14.7693 7.7L12.6673 5.946L12.8712 8.66925L10.55 10.1155L13.2038 10.7712L13.875 13.4348ZM18.2405 20.5L16.5962 18.8557L18.2405 17.2115L19.8845 18.8557L18.2405 20.5Z" fill="#0071EF"/>
</g>
</svg>
