<svg width="22" height="22" viewBox="0 0 22 22" fill="none" xmlns="http://www.w3.org/2000/svg">
<path d="M5.00004 17H6.33337V4.99998H5.00004V17ZM15.6667 14.3333H17V4.99998H15.6667V14.3333ZM10.3334 10.3333H11.6667V4.99998H10.3334V10.3333ZM2.48737 21.6666C1.8736 21.6666 1.36115 21.4611 0.950041 21.05C0.53893 20.6389 0.333374 20.1264 0.333374 19.5126V2.48731C0.333374 1.87354 0.53893 1.36109 0.950041 0.94998C1.36115 0.538869 1.8736 0.333313 2.48737 0.333313H19.5127C20.1265 0.333313 20.6389 0.538869 21.05 0.94998C21.4612 1.36109 21.6667 1.87354 21.6667 2.48731V19.5126C21.6667 20.1264 21.4612 20.6389 21.05 21.05C20.6389 21.4611 20.1265 21.6666 19.5127 21.6666H2.48737ZM2.48737 20.3333H19.5127C19.718 20.3333 19.9062 20.2479 20.077 20.077C20.2479 19.9061 20.3334 19.718 20.3334 19.5126V2.48731C20.3334 2.28198 20.2479 2.09387 20.077 1.92298C19.9062 1.75209 19.718 1.66665 19.5127 1.66665H2.48737C2.28204 1.66665 2.09393 1.75209 1.92304 1.92298C1.75215 2.09387 1.66671 2.28198 1.66671 2.48731V19.5126C1.66671 19.718 1.75215 19.9061 1.92304 20.077C2.09393 20.2479 2.28204 20.3333 2.48737 20.3333Z" fill="#1C1B1F"/>
</svg>
